<?xml version="1.0" encoding="utf-8"?>
<!-- Generator: Adobe Illustrator 27.0.0, SVG Export Plug-In . SVG Version: 6.00 Build 0)  -->
<svg version="1.1" xmlns="http://www.w3.org/2000/svg" xmlns:xlink="http://www.w3.org/1999/xlink" x="0px" y="0px"
	 viewBox="0 0 380.9 381.3" style="enable-background:new 0 0 380.9 381.3;" xml:space="preserve">
<style type="text/css">
	.st0{fill:#FFFFFF;stroke:#0061AD;}
	.st1{fill:none;stroke:#0061AD;}
	.st2{fill:#0061AD;}
	.st3{fill:#0061AD;stroke:#0061AD;}
	
		.st4{clip-path:url(#SVGID_00000088826970557065753020000014816401718579077528_);fill-rule:evenodd;clip-rule:evenodd;fill:#DC2F34;}
	.st5{clip-path:url(#SVGID_00000091737273100774361460000000931604028304054450_);fill:#FFFFFF;}
	
		.st6{clip-path:url(#SVGID_00000091737273100774361460000000931604028304054450_);fill:#0061AD;stroke:#0061AD;stroke-width:0.6307;stroke-miterlimit:3.8637;}
	.st7{clip-path:url(#SVGID_00000091737273100774361460000000931604028304054450_);fill:#0061AD;}
	.st8{fill:#DC2F34;}
	.st9{fill:#FFFFFF;}
	.st10{fill:#DC2F34;stroke:#DC2F34;stroke-width:0.7964;stroke-linecap:round;stroke-linejoin:round;stroke-miterlimit:10;}
	.st11{fill:#FFFFFF;stroke:#DC2F34;stroke-width:0.7964;stroke-linecap:round;stroke-linejoin:round;stroke-miterlimit:10;}
</style>
<g id="Ebene_2">
	
		<ellipse transform="matrix(0.7071 -0.7071 0.7071 0.7071 -78.846 190.4347)" class="st0" cx="190.5" cy="190.4" rx="189.8" ry="189.8"/>
	
		<ellipse transform="matrix(9.853728e-02 -0.9951 0.9951 9.853728e-02 -17.7811 361.1571)" class="st1" cx="190.5" cy="190.4" rx="156.4" ry="156.4"/>
	<g>
		<path class="st2" d="M33.5,93.5c-0.2,0.4-0.6,0.6-1,0.7c-0.4,0.1-0.9,0.1-1.3-0.2c-0.4-0.3-0.7-0.6-0.7-1c-0.1-0.4,0-0.8,0.2-1.2
			c0.2-0.4,0.6-0.6,1-0.8c0.4-0.1,0.9,0,1.3,0.2c0.4,0.3,0.7,0.6,0.7,1.1C33.8,92.7,33.8,93.1,33.5,93.5z M33.8,86.9
			c0.1-0.2,0.4-0.4,0.6-0.6c0.3-0.1,0.5-0.2,0.8-0.2c0.3,0,0.6,0.1,0.8,0.3c0.4,0.3,0.7,0.6,0.8,1.1c0.1,0.4,0,0.8-0.3,1.2
			c-0.2,0.4-0.6,0.6-1,0.7s-0.9,0.1-1.3-0.2c-0.4-0.2-0.6-0.6-0.7-1C33.5,87.7,33.6,87.3,33.8,86.9z M36,92.3
			c1.2-1.9,2.6-3.2,4.2-4.1c1.6-0.9,3.4-1.2,5.2-1c1.8,0.2,3.7,0.9,5.6,2.1c1.4,0.9,2.6,1.9,3.5,3c0.9,1.1,1.5,2.3,1.9,3.6
			s0.4,2.6,0.1,4s-0.8,2.8-1.7,4.2c-0.9,1.4-1.9,2.5-3.1,3.4c-1.2,0.8-2.4,1.4-3.7,1.6c-1.3,0.2-2.7,0.1-4.1-0.2
			c-1.4-0.4-2.8-1-4.2-1.8c-1.4-0.9-2.5-1.9-3.4-3c-0.9-1.1-1.5-2.3-1.9-3.6c-0.3-1.3-0.4-2.6-0.1-4C34.5,95.1,35.1,93.7,36,92.3z
			 M48.6,93c-1.3-0.8-2.6-1.4-3.9-1.6c-1.2-0.2-2.4,0-3.4,0.4c-1,0.5-1.8,1.2-2.5,2.3c-0.5,0.7-0.8,1.5-0.9,2.3S38,98,38.2,98.8
			s0.7,1.6,1.3,2.3c0.7,0.8,1.5,1.5,2.5,2.1c1,0.7,2,1.1,3,1.4c1,0.3,1.9,0.3,2.8,0.2c0.8-0.1,1.6-0.4,2.3-0.8s1.2-1,1.7-1.8
			c0.6-0.9,0.9-2,0.9-3s-0.3-2.2-1-3.3C51.1,94.9,50.1,93.9,48.6,93z"/>
		<path class="st2" d="M70.7,72.9c1,0.9,1.6,1.9,2,3.1s0.3,2.5-0.1,3.8s-1.2,2.7-2.4,4c-1.4,1.6-2.9,2.6-4.4,3.1
			c-1.1,0.3-2.2,0.4-3.3,0.3c-1.1-0.2-2-0.6-2.7-1.2c-0.4-0.4-0.6-0.8-0.6-1.3c0-0.5,0.1-1,0.5-1.4c0.3-0.3,0.7-0.5,1.1-0.6
			c0.4,0,0.9,0,1.5,0.3c0.7,0.2,1.3,0.4,1.9,0.5c0.6,0.1,1.1,0,1.7-0.3c0.6-0.2,1.2-0.7,1.8-1.4c0.9-1,1.3-1.9,1.4-2.9
			s-0.2-1.8-0.9-2.4c-0.5-0.5-1.1-0.7-1.7-0.7c-0.6,0-1.2,0.2-1.9,0.6c-0.6,0.4-1.4,0.9-2.4,1.6c-1.3,0.9-2.5,1.6-3.5,2.1
			c-1.1,0.5-2.1,0.6-3.1,0.5s-2-0.6-2.9-1.4c-0.9-0.8-1.5-1.7-1.7-2.8c-0.3-1.1-0.2-2.3,0.3-3.5c0.4-1.2,1.2-2.5,2.3-3.7
			c0.9-1,1.8-1.7,2.6-2.2c0.9-0.5,1.7-0.8,2.6-0.9s1.6-0.1,2.2,0.1c0.6,0.2,1.2,0.5,1.6,0.8c0.4,0.3,0.6,0.8,0.7,1.3
			c0.1,0.5-0.1,1-0.4,1.4c-0.3,0.4-0.7,0.6-1,0.6c-0.4,0-0.8,0-1.5-0.2c-0.9-0.2-1.6-0.3-2.4-0.2s-1.5,0.6-2.3,1.5
			c-0.7,0.8-1.2,1.7-1.2,2.5s0.1,1.5,0.6,2c0.3,0.3,0.7,0.4,1.1,0.5c0.4,0,0.8,0,1.2-0.2c0.4-0.2,0.8-0.4,1.2-0.6
			c0.4-0.2,1-0.6,1.8-1.2c1-0.7,2-1.3,2.9-1.8c0.9-0.5,1.8-0.9,2.6-1c0.8-0.2,1.6-0.2,2.5,0S69.9,72.1,70.7,72.9z"/>
		<path class="st2" d="M79.9,49.5l-3.6,3.1l10.1,11.9c0.6,0.7,0.9,1.3,0.8,1.9c0,0.6-0.3,1.1-0.8,1.5c-0.5,0.4-1,0.6-1.6,0.5
			c-0.6-0.1-1.2-0.4-1.8-1.1L73,55.3l-3.6,3.1c-0.6,0.5-1.1,0.7-1.6,0.7c-0.5,0-0.9-0.2-1.3-0.6c-0.4-0.4-0.5-0.9-0.4-1.4
			c0.1-0.5,0.4-1,0.9-1.4l10.5-9c0.6-0.5,1.1-0.7,1.6-0.7c0.5,0,0.9,0.2,1.3,0.6s0.5,0.9,0.4,1.3C80.8,48.5,80.4,49,79.9,49.5z"/>
		<path class="st2" d="M100.6,35.2l-8.3,5.2l2.8,4.5l7.6-4.8c0.6-0.4,1.1-0.5,1.5-0.4c0.4,0.1,0.8,0.3,1,0.7s0.3,0.8,0.2,1.3
			s-0.4,0.8-1,1.2l-7.6,4.8l3.3,5.2l8.6-5.4c0.6-0.4,1.1-0.5,1.6-0.4s0.8,0.3,1.1,0.8c0.3,0.4,0.3,0.9,0.2,1.3
			c-0.1,0.5-0.5,0.9-1.1,1.2l-10,6.3c-0.8,0.5-1.5,0.7-2.1,0.6c-0.6-0.1-1.1-0.6-1.6-1.4l-8.6-13.7c-0.3-0.5-0.5-1-0.6-1.4
			s0-0.8,0.3-1.2s0.6-0.7,1.1-1l9.7-6.1c0.6-0.4,1.1-0.5,1.6-0.4c0.4,0.1,0.8,0.3,1.1,0.8c0.3,0.4,0.3,0.9,0.2,1.3
			S101.1,34.8,100.6,35.2z"/>
		<path class="st2" d="M120.2,35.2l-1.4,0.6l2.8,6.3c0.4,0.8,0.4,1.5,0.2,2.1c-0.2,0.6-0.6,1-1.2,1.2c-0.6,0.3-1.2,0.3-1.7,0
			s-1-0.8-1.3-1.6L111,28.7c-0.4-0.9-0.5-1.6-0.2-2.1c0.2-0.6,0.8-1,1.6-1.4l6.5-2.8c0.9-0.4,1.7-0.7,2.3-0.9
			c0.7-0.2,1.3-0.3,1.9-0.3c0.7,0,1.4,0.1,2.1,0.4c0.7,0.3,1.3,0.7,1.8,1.2c0.5,0.5,0.9,1.2,1.3,1.9c0.6,1.5,0.7,2.8,0.3,4.1
			c-0.4,1.2-1.4,2.4-3,3.5c0.9,0.1,1.8,0.3,2.8,0.8c1,0.5,1.9,1,2.7,1.6s1.6,1.2,2.2,1.7s0.9,0.9,1,1.2c0.1,0.3,0.1,0.6,0.1,0.9
			s-0.2,0.6-0.4,0.9c-0.2,0.3-0.5,0.5-0.9,0.7c-0.4,0.2-0.9,0.3-1.3,0.2c-0.4-0.1-0.8-0.2-1.1-0.5c-0.4-0.2-0.9-0.6-1.5-1l-2.8-2
			c-1-0.7-1.8-1.2-2.5-1.6c-0.7-0.3-1.3-0.5-1.8-0.4C121.5,34.7,120.9,34.9,120.2,35.2z M118.9,25.9l-3.7,1.6l2.4,5.4l3.6-1.6
			c1-0.4,1.7-0.9,2.3-1.3c0.6-0.4,1-0.9,1.1-1.5s0.1-1.2-0.2-1.9c-0.2-0.5-0.6-1-1-1.3c-0.5-0.3-1-0.4-1.6-0.4
			C121.2,25,120.3,25.3,118.9,25.9z"/>
		<path class="st2" d="M145.2,26.2l-1.5,0.4l1.7,6.7c0.2,0.9,0.2,1.6-0.1,2.1c-0.3,0.5-0.7,0.9-1.4,1c-0.7,0.2-1.2,0.1-1.7-0.2
			c-0.5-0.3-0.8-0.9-1-1.8l-4.1-16c-0.2-0.9-0.2-1.6,0.1-2.1c0.3-0.5,0.9-0.9,1.8-1.1l6.9-1.8c0.9-0.2,1.8-0.4,2.5-0.5
			c0.7-0.1,1.3-0.1,1.9,0c0.7,0.1,1.4,0.3,2,0.7c0.6,0.4,1.2,0.9,1.6,1.5s0.8,1.3,0.9,2c0.4,1.6,0.3,2.9-0.4,4.1
			c-0.6,1.2-1.8,2.2-3.5,3c0.8,0.2,1.7,0.6,2.6,1.2c0.9,0.6,1.7,1.3,2.5,2c0.8,0.7,1.4,1.4,1.9,2c0.5,0.6,0.8,1.1,0.8,1.3
			c0.1,0.3,0.1,0.6-0.1,0.9c-0.1,0.3-0.3,0.6-0.6,0.8c-0.3,0.2-0.6,0.4-1,0.5c-0.5,0.1-0.9,0.1-1.3,0c-0.4-0.1-0.7-0.3-1-0.6
			c-0.3-0.3-0.8-0.7-1.3-1.3l-2.4-2.4c-0.9-0.9-1.6-1.5-2.2-1.9c-0.6-0.4-1.2-0.7-1.7-0.7C146.6,25.9,146,26,145.2,26.2z
			 M145.4,16.8l-3.9,1l1.5,5.7l3.8-1c1-0.3,1.8-0.6,2.5-0.9c0.6-0.4,1.1-0.8,1.4-1.3c0.3-0.5,0.3-1.1,0.1-1.9
			c-0.1-0.6-0.4-1-0.8-1.4c-0.4-0.4-0.9-0.6-1.5-0.7C147.8,16.3,146.8,16.4,145.4,16.8z"/>
		<path class="st2" d="M178.6,11.4l-9.8,1l0.5,5.2l9-0.9c0.7-0.1,1.2,0,1.5,0.3c0.4,0.3,0.6,0.6,0.6,1.1s-0.1,0.9-0.4,1.2
			c-0.3,0.3-0.8,0.5-1.4,0.6l-9,0.9l0.6,6.1l10.1-1c0.7-0.1,1.2,0,1.6,0.3c0.4,0.3,0.6,0.7,0.6,1.2c0.1,0.5-0.1,0.9-0.4,1.3
			c-0.3,0.4-0.8,0.6-1.5,0.6L169,30.6c-0.9,0.1-1.6,0-2.1-0.4c-0.5-0.4-0.7-1-0.8-2l-1.6-16.1c-0.1-0.6,0-1.1,0.1-1.6
			s0.4-0.7,0.8-0.9c0.4-0.2,0.9-0.4,1.5-0.4l11.4-1.2c0.7-0.1,1.2,0,1.6,0.3s0.6,0.7,0.6,1.2c0.1,0.5-0.1,0.9-0.4,1.3
			C179.8,11.2,179.3,11.4,178.6,11.4z"/>
		<path class="st2" d="M190.2,27l0.3-16.9c0-0.9,0.2-1.5,0.6-2c0.4-0.4,0.9-0.6,1.6-0.6c0.7,0,1.2,0.2,1.6,0.7
			c0.4,0.4,0.6,1.1,0.6,2L194.5,27c0,0.9-0.2,1.5-0.6,2c-0.4,0.4-0.9,0.6-1.6,0.6c-0.6,0-1.1-0.2-1.5-0.7S190.2,27.9,190.2,27z"/>
		<path class="st2" d="M222,25.2c-0.1,0.7-0.4,1.4-0.8,2.1c-0.4,0.7-1.1,1.5-1.9,2.1s-1.8,1.2-3,1.5s-2.5,0.4-4,0.2
			c-1.1-0.1-2.1-0.4-3-0.7c-0.9-0.3-1.7-0.8-2.4-1.3s-1.3-1.2-1.8-2.1c-0.5-0.7-0.9-1.6-1.1-2.4c-0.3-0.9-0.5-1.8-0.5-2.8s0-2,0.1-3
			c0.2-1.7,0.7-3.2,1.4-4.5c0.7-1.3,1.5-2.4,2.6-3.2s2.2-1.4,3.6-1.8c1.3-0.3,2.7-0.4,4.1-0.2c1.7,0.2,3.2,0.8,4.5,1.6
			s2.2,1.8,2.8,3c0.6,1.1,0.8,2.1,0.7,3c-0.1,0.5-0.3,0.9-0.7,1.2c-0.4,0.3-0.8,0.5-1.3,0.4c-0.6-0.1-0.9-0.3-1.2-0.6
			s-0.5-0.8-0.7-1.5c-0.4-1.1-1-2-1.7-2.6s-1.6-1-2.7-1.2c-1.8-0.2-3.3,0.3-4.5,1.5c-1.2,1.2-2,3.1-2.3,5.5
			c-0.2,1.7-0.2,3.1,0.2,4.2c0.3,1.2,0.9,2.1,1.7,2.7c0.8,0.7,1.7,1.1,2.9,1.2c1.2,0.2,2.3,0,3.3-0.5c0.9-0.5,1.7-1.3,2.3-2.5
			c0.3-0.5,0.5-1,0.9-1.3c0.3-0.3,0.8-0.4,1.4-0.4c0.5,0.1,0.9,0.3,1.3,0.7C221.9,24.2,222,24.6,222,25.2z"/>
		<path class="st2" d="M238.2,16.4l-1.8,5.9l9,2.7l1.8-5.9c0.3-0.8,0.6-1.4,1.1-1.7c0.5-0.3,1.1-0.4,1.7-0.2
			c0.6,0.2,1.1,0.6,1.3,1.1c0.3,0.5,0.3,1.2,0,2.1l-4.9,16.2c-0.3,0.9-0.6,1.4-1.2,1.7c-0.5,0.3-1.1,0.4-1.7,0.2
			c-0.6-0.2-1.1-0.6-1.3-1.1c-0.2-0.5-0.2-1.2,0-2.1l2.1-6.9l-9-2.7l-2.1,6.9c-0.3,0.9-0.6,1.4-1.2,1.7c-0.5,0.3-1.1,0.4-1.7,0.2
			c-0.6-0.2-1.1-0.6-1.3-1.1c-0.2-0.5-0.2-1.2,0-2.1l4.9-16.2c0.3-0.8,0.6-1.4,1.1-1.7c0.5-0.3,1.1-0.4,1.7-0.2
			c0.6,0.2,1.1,0.6,1.3,1.1C238.5,14.9,238.5,15.6,238.2,16.4z"/>
		<path class="st2" d="M254.5,40l6.8-15.5c0.4-0.8,0.8-1.3,1.3-1.6c0.5-0.2,1.1-0.2,1.7,0c0.6,0.3,1,0.7,1.2,1.2
			c0.2,0.6,0.1,1.2-0.2,2.1l-6.8,15.5c-0.4,0.8-0.8,1.3-1.4,1.6c-0.5,0.2-1.1,0.2-1.7,0c-0.6-0.3-1-0.7-1.1-1.2S254.2,40.8,254.5,40
			z"/>
		<path class="st2" d="M282.6,50.2c-0.7,1.1-1.5,2-2.6,2.5c-1.1,0.6-2.4,0.8-3.8,0.6c-1.4-0.1-2.9-0.7-4.4-1.6
			c-1.8-1.1-3.1-2.3-3.9-3.7c-0.6-1-0.8-2.1-0.9-3.2c0-1.1,0.2-2.1,0.6-2.9c0.3-0.5,0.7-0.8,1.2-0.9c0.5-0.1,1-0.1,1.5,0.2
			c0.4,0.2,0.7,0.6,0.8,1c0.1,0.4,0.1,0.9,0,1.5c-0.1,0.7-0.1,1.4-0.1,1.9c0,0.6,0.2,1.1,0.6,1.7c0.3,0.5,0.9,1.1,1.7,1.5
			c1.1,0.7,2.2,0.9,3.2,0.8c1-0.1,1.7-0.6,2.2-1.3c0.4-0.6,0.5-1.2,0.3-1.8c-0.2-0.6-0.5-1.2-0.9-1.7c-0.5-0.6-1.1-1.2-2-2
			c-1.1-1.1-2-2.1-2.7-3.1c-0.7-0.9-1-1.9-1.1-3c-0.1-1,0.2-2.1,0.8-3.1c0.6-1,1.4-1.8,2.4-2.2c1-0.5,2.2-0.6,3.5-0.4
			c1.3,0.2,2.7,0.7,4.1,1.5c1.1,0.7,2,1.4,2.7,2.2s1.1,1.5,1.4,2.3c0.3,0.8,0.4,1.5,0.3,2.2c0,0.7-0.2,1.2-0.5,1.7
			c-0.3,0.4-0.7,0.8-1.2,0.9c-0.5,0.2-1,0.1-1.5-0.2c-0.4-0.3-0.7-0.6-0.8-0.9c-0.1-0.3-0.1-0.8-0.1-1.5c0.1-0.9,0-1.7-0.3-2.3
			c-0.2-0.7-0.9-1.3-1.9-1.9c-1-0.6-1.9-0.8-2.7-0.7c-0.8,0.1-1.4,0.4-1.8,1c-0.2,0.4-0.3,0.8-0.3,1.1c0,0.4,0.2,0.8,0.4,1.2
			c0.2,0.4,0.5,0.8,0.8,1.1c0.3,0.3,0.8,0.8,1.5,1.5c0.9,0.9,1.7,1.7,2.4,2.5c0.7,0.8,1.2,1.6,1.5,2.3c0.3,0.8,0.5,1.6,0.5,2.4
			C283.4,48.3,283.1,49.2,282.6,50.2z"/>
		<path class="st2" d="M303.8,66.2c-0.4,0.5-1,1-1.8,1.4c-0.8,0.4-1.7,0.7-2.7,0.8c-1,0.1-2.2,0-3.3-0.3s-2.3-1-3.5-1.9
			c-0.9-0.7-1.6-1.4-2.2-2.2c-0.6-0.8-1-1.5-1.3-2.4c-0.3-0.8-0.5-1.7-0.5-2.7c0-0.9,0.1-1.8,0.3-2.7s0.5-1.8,1-2.6
			c0.4-0.9,1-1.7,1.7-2.5c1.1-1.3,2.3-2.4,3.5-3.1c1.3-0.7,2.5-1.2,3.9-1.4s2.7,0,4,0.4s2.5,1.1,3.6,2c1.3,1.1,2.3,2.3,2.9,3.7
			c0.6,1.4,0.9,2.7,0.8,4s-0.4,2.2-1,2.9c-0.3,0.4-0.7,0.6-1.2,0.7c-0.5,0.1-1,0-1.3-0.4c-0.4-0.4-0.7-0.7-0.7-1.1
			c0-0.4,0-0.9,0.1-1.6c0.2-1.2,0.2-2.2,0-3.1s-0.8-1.7-1.7-2.4c-1.4-1.1-2.9-1.5-4.6-1.1s-3.3,1.5-4.9,3.5
			c-1.1,1.3-1.8,2.5-2.1,3.7c-0.3,1.2-0.3,2.2,0,3.2c0.3,1,0.9,1.8,1.8,2.5c1,0.8,2,1.2,3,1.3c1.1,0.1,2.1-0.2,3.2-0.9
			c0.5-0.3,1-0.5,1.4-0.6c0.4-0.1,0.9,0,1.4,0.4c0.4,0.3,0.6,0.7,0.7,1.3C304.3,65.3,304.1,65.7,303.8,66.2z"/>
		<path class="st2" d="M322.2,67.2l-4.6,4.1l6.2,7l4.6-4.1c0.7-0.6,1.3-0.9,1.9-0.9c0.6,0,1.1,0.2,1.5,0.7c0.4,0.5,0.6,1,0.6,1.6
			c-0.1,0.6-0.4,1.2-1.1,1.8l-12.6,11.2c-0.7,0.6-1.3,0.9-1.9,0.9c-0.6,0-1.1-0.3-1.5-0.7c-0.4-0.5-0.6-1-0.5-1.6
			c0.1-0.6,0.4-1.2,1.1-1.8l5.4-4.8l-6.2-7l-5.4,4.8c-0.7,0.6-1.3,0.9-1.9,0.9c-0.6,0-1.1-0.3-1.5-0.7c-0.4-0.5-0.6-1-0.5-1.6
			c0.1-0.6,0.4-1.2,1.1-1.8l12.6-11.2c0.7-0.6,1.3-0.9,1.9-0.9s1.1,0.2,1.5,0.7c0.4,0.5,0.6,1,0.6,1.6
			C323.2,66,322.9,66.6,322.2,67.2z"/>
		<path class="st2" d="M344.8,99l-5.3-8.2l-4.4,2.9l4.9,7.6c0.4,0.6,0.5,1.1,0.4,1.5c-0.1,0.4-0.3,0.8-0.7,1.1
			c-0.4,0.3-0.8,0.3-1.3,0.2c-0.4-0.1-0.8-0.4-1.2-1l-4.9-7.6l-5.1,3.3l5.5,8.5c0.4,0.6,0.5,1.1,0.4,1.6c-0.1,0.5-0.3,0.8-0.8,1.1
			c-0.4,0.3-0.9,0.4-1.3,0.2c-0.5-0.1-0.9-0.5-1.2-1l-6.4-9.9c-0.5-0.8-0.7-1.5-0.6-2.1c0.1-0.6,0.6-1.1,1.4-1.6l13.6-8.7
			c0.5-0.3,1-0.5,1.4-0.6s0.8,0,1.2,0.3s0.7,0.6,1,1.1l6.2,9.7c0.4,0.6,0.5,1.1,0.4,1.5c-0.1,0.4-0.3,0.8-0.7,1.1
			c-0.4,0.3-0.9,0.4-1.3,0.2C345.6,99.9,345.2,99.6,344.8,99z"/>
	</g>
	<g>
		<path class="st2" d="M61.8,316.8l7-11.4L57,311.8c-0.9,0.5-1.6,0.8-2,1c-0.4,0.2-0.9,0.2-1.4,0.2s-1-0.3-1.5-0.8
			c-0.4-0.4-0.6-0.8-0.7-1.2c-0.1-0.4-0.1-0.8,0-1.2c0.1-0.4,0.3-0.8,0.6-1.3c0.3-0.4,0.5-0.9,0.8-1.2l8-12.5
			c0.5-0.7,0.9-1.3,1.2-1.6c0.4-0.4,0.9-0.6,1.4-0.5c0.5,0,1,0.2,1.4,0.7c0.5,0.6,0.7,1.1,0.5,1.7c-0.2,0.5-0.6,1.2-1.1,2l-7.2,10.7
			l10.7-5.8c0.8-0.4,1.5-0.8,1.9-1c0.5-0.2,1-0.2,1.5-0.2c0.5,0.1,1.1,0.4,1.6,0.9c0.5,0.5,0.8,1.1,0.8,1.6c0,0.5-0.1,1-0.3,1.4
			c-0.2,0.4-0.6,1-1.1,1.9l-6.3,10.4l11-6.6c0.6-0.3,1-0.6,1.4-0.8c0.4-0.2,0.7-0.2,1.2-0.2c0.4,0,0.8,0.2,1.2,0.6
			c0.4,0.4,0.6,0.9,0.6,1.4c0,0.5-0.2,1-0.6,1.4c-0.3,0.3-0.8,0.6-1.6,1.1l-13,7.3c-0.9,0.5-1.5,0.8-2,1c-0.4,0.2-0.9,0.3-1.4,0.2
			c-0.5,0-1-0.3-1.5-0.8c-0.5-0.5-0.7-1-0.7-1.5c0-0.5,0-1,0.2-1.4C60.9,318.4,61.2,317.7,61.8,316.8z"/>
		<path class="st2" d="M84.1,337.4l0.8-2.8l-6.9-5.3l-2.5,1.6c-1,0.6-1.7,1-2.1,1.1s-0.9,0-1.4-0.4c-0.4-0.3-0.7-0.8-0.8-1.4
			c-0.1-0.6,0-1.1,0.3-1.5c0.2-0.2,0.4-0.4,0.7-0.6c0.3-0.2,0.7-0.4,1.2-0.7l12.9-7.7c0.4-0.2,0.8-0.5,1.3-0.8
			c0.5-0.3,1-0.5,1.4-0.7c0.4-0.1,0.9-0.2,1.3-0.1s0.9,0.3,1.4,0.6c0.5,0.4,0.8,0.8,1,1.2c0.2,0.4,0.3,0.9,0.2,1.3
			c0,0.4-0.1,0.9-0.2,1.3c-0.1,0.4-0.3,1-0.5,1.7l-4,14.4c-0.3,1.1-0.6,1.8-0.9,2.2c-0.3,0.4-0.7,0.6-1.3,0.7
			c-0.6,0.1-1.1-0.1-1.6-0.4c-0.3-0.2-0.5-0.4-0.6-0.7c-0.1-0.2-0.2-0.5-0.2-0.8s0.1-0.6,0.2-1.1C83.9,338.1,84,337.7,84.1,337.4z
			 M80.9,327.4l5.1,3.9l2.8-9L80.9,327.4z"/>
		<path class="st2" d="M109.9,348.7c-0.6,1.1-1.5,2-2.6,2.5c-1.1,0.6-2.3,0.8-3.8,0.6c-1.4-0.1-2.9-0.6-4.4-1.5
			c-1.8-1.1-3.2-2.3-4-3.6c-0.6-1-0.9-2-0.9-3.2c-0.1-1.1,0.1-2.1,0.6-2.9c0.3-0.5,0.6-0.8,1.2-0.9c0.5-0.1,1-0.1,1.5,0.2
			c0.4,0.2,0.7,0.5,0.8,1c0.1,0.4,0.1,0.9,0.1,1.5c-0.1,0.7-0.1,1.4-0.1,1.9c0,0.6,0.2,1.1,0.6,1.7c0.4,0.5,0.9,1.1,1.7,1.5
			c1.1,0.6,2.2,0.9,3.2,0.8c1-0.1,1.7-0.6,2.2-1.3c0.4-0.6,0.5-1.2,0.3-1.8c-0.2-0.6-0.5-1.2-1-1.7c-0.5-0.5-1.2-1.2-2-2
			c-1.2-1.1-2.1-2.1-2.7-3s-1.1-1.9-1.2-2.9c-0.1-1,0.1-2.1,0.8-3.2c0.6-1,1.4-1.8,2.4-2.3c1-0.5,2.2-0.6,3.5-0.4
			c1.3,0.2,2.7,0.7,4.1,1.5c1.1,0.7,2.1,1.4,2.7,2.1c0.7,0.8,1.1,1.5,1.4,2.3c0.3,0.8,0.4,1.5,0.4,2.2c0,0.7-0.2,1.2-0.5,1.7
			c-0.3,0.4-0.6,0.8-1.2,0.9c-0.5,0.2-1,0.1-1.5-0.1c-0.4-0.2-0.7-0.5-0.8-0.9c-0.1-0.3-0.1-0.8-0.1-1.5c0.1-0.9,0-1.7-0.3-2.3
			c-0.2-0.7-0.9-1.3-1.9-1.9c-1-0.6-1.9-0.8-2.7-0.7c-0.8,0.1-1.4,0.4-1.8,1c-0.2,0.4-0.3,0.8-0.2,1.1s0.2,0.8,0.4,1.2
			c0.2,0.4,0.5,0.8,0.8,1.1c0.3,0.3,0.8,0.8,1.5,1.5c0.9,0.8,1.7,1.7,2.4,2.4c0.7,0.8,1.2,1.6,1.6,2.3s0.5,1.6,0.5,2.4
			C110.8,346.8,110.5,347.7,109.9,348.7z"/>
		<path class="st2" d="M131.4,357.9c-0.5,1.2-1.2,2.2-2.3,2.9c-1,0.7-2.2,1.1-3.6,1.1c-1.4,0.1-2.9-0.3-4.6-0.9
			c-2-0.8-3.4-1.8-4.4-3.1c-0.7-0.9-1.1-1.9-1.3-3c-0.2-1.1-0.1-2.1,0.2-2.9c0.2-0.5,0.5-0.8,1-1c0.5-0.2,1-0.2,1.5,0
			c0.4,0.2,0.7,0.5,0.9,0.8c0.2,0.4,0.3,0.9,0.3,1.5c0,0.7,0.1,1.4,0.2,1.9s0.4,1.1,0.8,1.6c0.4,0.5,1.1,0.9,1.9,1.3
			c1.2,0.5,2.3,0.6,3.2,0.4c1-0.3,1.6-0.8,2-1.6c0.3-0.7,0.3-1.3,0.1-1.9c-0.2-0.6-0.6-1.1-1.2-1.6c-0.5-0.5-1.3-1.1-2.3-1.7
			c-1.3-0.9-2.3-1.8-3.1-2.6c-0.8-0.8-1.3-1.8-1.5-2.8c-0.2-1-0.1-2.1,0.3-3.2c0.4-1.1,1.1-1.9,2.1-2.5c0.9-0.6,2.1-0.9,3.4-0.9
			c1.3,0,2.7,0.3,4.3,0.9c1.2,0.5,2.2,1.1,3,1.7s1.3,1.4,1.7,2.1c0.4,0.7,0.6,1.4,0.6,2.1c0,0.7,0,1.3-0.3,1.8
			c-0.2,0.5-0.5,0.8-1,1.1c-0.5,0.2-1,0.3-1.5,0.1c-0.5-0.2-0.8-0.4-0.9-0.8c-0.1-0.3-0.3-0.8-0.3-1.5c-0.1-0.9-0.2-1.7-0.6-2.3
			c-0.3-0.6-1.1-1.2-2.2-1.6c-1-0.4-2-0.5-2.8-0.3c-0.8,0.2-1.4,0.6-1.6,1.3c-0.2,0.4-0.2,0.8-0.1,1.2s0.3,0.7,0.6,1.1
			c0.3,0.4,0.6,0.7,1,1c0.3,0.3,0.9,0.7,1.7,1.3c1,0.7,1.9,1.4,2.7,2.1c0.8,0.7,1.4,1.4,1.8,2.1s0.7,1.5,0.8,2.3
			C132,355.9,131.8,356.9,131.4,357.9z"/>
		<path class="st2" d="M154.8,352.3l-9.5-2.5l-1.3,5.1l8.7,2.3c0.6,0.2,1.1,0.4,1.3,0.8c0.2,0.4,0.3,0.8,0.2,1.3s-0.4,0.8-0.8,1
			c-0.4,0.2-0.9,0.2-1.6,0.1l-8.7-2.3l-1.5,5.9l9.8,2.6c0.7,0.2,1.1,0.5,1.4,0.9c0.3,0.4,0.3,0.8,0.2,1.4c-0.1,0.5-0.4,0.8-0.8,1.1
			s-1,0.2-1.6,0.1l-11.4-3c-0.9-0.2-1.5-0.6-1.8-1.1c-0.3-0.5-0.3-1.2-0.1-2.1l4.1-15.6c0.2-0.6,0.4-1.1,0.7-1.4
			c0.3-0.3,0.6-0.5,1.1-0.6s0.9,0,1.5,0.1l11.1,2.9c0.7,0.2,1.1,0.5,1.4,0.8c0.2,0.4,0.3,0.8,0.2,1.3c-0.1,0.5-0.4,0.8-0.8,1.1
			C156,352.5,155.4,352.5,154.8,352.3z"/>
		<path class="st2" d="M167,363.4l-1.5-0.2l-0.8,6.9c-0.1,0.9-0.4,1.5-0.8,1.9c-0.4,0.4-1,0.5-1.6,0.5c-0.7-0.1-1.2-0.4-1.5-0.9
			c-0.3-0.5-0.4-1.2-0.3-2l2-16.4c0.1-0.9,0.4-1.6,0.9-1.9s1.2-0.5,2.1-0.4l7,0.8c1,0.1,1.8,0.3,2.5,0.4c0.7,0.2,1.3,0.4,1.8,0.7
			c0.6,0.4,1.2,0.8,1.6,1.4c0.5,0.6,0.8,1.2,1,2c0.2,0.7,0.2,1.5,0.1,2.3c-0.2,1.6-0.8,2.8-1.8,3.7c-1,0.8-2.5,1.4-4.3,1.5
			c0.7,0.5,1.4,1.2,2,2.1c0.6,0.9,1.1,1.8,1.6,2.8c0.4,1,0.8,1.8,1,2.6s0.3,1.3,0.3,1.5c0,0.3-0.2,0.5-0.4,0.8
			c-0.2,0.3-0.5,0.4-0.8,0.6s-0.7,0.2-1.1,0.1c-0.5-0.1-0.9-0.2-1.2-0.5c-0.3-0.3-0.6-0.6-0.7-1c-0.2-0.4-0.5-0.9-0.8-1.7l-1.4-3.1
			c-0.5-1.1-1-2-1.4-2.6s-0.9-1-1.4-1.3S167.7,363.5,167,363.4z M170.5,354.8l-4-0.5l-0.7,5.9l3.9,0.5c1,0.1,1.9,0.1,2.7,0
			c0.7-0.1,1.3-0.3,1.7-0.7c0.4-0.4,0.7-1,0.8-1.7c0.1-0.6,0-1.1-0.3-1.6c-0.2-0.5-0.6-0.9-1.1-1.2C173,355.2,172,354.9,170.5,354.8
			z"/>
		<path class="st2" d="M191.4,365l-1.5,0l0.1,6.9c0,0.9-0.2,1.6-0.6,2c-0.4,0.4-0.9,0.7-1.6,0.7c-0.7,0-1.2-0.2-1.6-0.6
			s-0.6-1.1-0.6-2l-0.3-16.5c0-0.9,0.2-1.6,0.6-2c0.4-0.4,1.1-0.7,2-0.7l7.1-0.1c1,0,1.8,0,2.5,0.1s1.3,0.2,1.9,0.5
			c0.7,0.3,1.3,0.7,1.8,1.2c0.5,0.5,0.9,1.1,1.2,1.8c0.3,0.7,0.4,1.4,0.4,2.2c0,1.6-0.4,2.9-1.3,3.9s-2.2,1.7-4.1,2.1
			c0.8,0.4,1.5,1,2.2,1.8c0.7,0.8,1.4,1.6,1.9,2.5c0.6,0.9,1,1.7,1.3,2.4c0.3,0.7,0.5,1.2,0.5,1.5c0,0.3-0.1,0.6-0.3,0.8
			c-0.2,0.3-0.4,0.5-0.7,0.7c-0.3,0.2-0.7,0.3-1.1,0.3c-0.5,0-0.9-0.1-1.2-0.3s-0.6-0.5-0.9-0.9s-0.6-0.9-1-1.5l-1.8-2.9
			c-0.6-1.1-1.2-1.9-1.7-2.4c-0.5-0.5-1-0.9-1.5-1.1S192.1,365,191.4,365z M193.7,355.9l-4,0.1l0.1,5.9l3.9-0.1c1,0,1.9-0.1,2.6-0.3
			c0.7-0.2,1.2-0.5,1.6-1c0.4-0.4,0.5-1,0.5-1.8c0-0.6-0.2-1.1-0.5-1.6c-0.3-0.4-0.7-0.8-1.3-1C196.2,356,195.2,355.9,193.7,355.9z"
			/>
		<path class="st2" d="M222.7,353l-9.7,1.5l0.8,5.2l8.9-1.4c0.7-0.1,1.2,0,1.5,0.2c0.4,0.2,0.6,0.6,0.7,1.1c0.1,0.5,0,0.9-0.3,1.3
			c-0.3,0.4-0.7,0.6-1.4,0.7l-8.9,1.4l0.9,6l10-1.6c0.7-0.1,1.2,0,1.6,0.2c0.4,0.3,0.6,0.7,0.7,1.2c0.1,0.5,0,0.9-0.3,1.3
			s-0.8,0.6-1.5,0.7l-11.7,1.8c-0.9,0.1-1.6,0-2.1-0.3s-0.8-1-0.9-1.9l-2.5-15.9c-0.1-0.6-0.1-1.1,0-1.6c0.1-0.4,0.4-0.7,0.7-1
			c0.4-0.2,0.8-0.4,1.5-0.5l11.3-1.8c0.7-0.1,1.2,0,1.6,0.2c0.4,0.3,0.6,0.6,0.7,1.1c0.1,0.5,0,0.9-0.3,1.3
			C223.8,352.7,223.3,352.9,222.7,353z"/>
		<path class="st2" d="M243.7,347.7l-4.6,1.3l4.4,15c0.3,0.9,0.2,1.6,0,2.1s-0.7,0.9-1.3,1.1c-0.6,0.2-1.2,0.1-1.7-0.2
			c-0.5-0.3-0.9-0.9-1.1-1.7l-4.4-15l-4.6,1.3c-0.7,0.2-1.3,0.2-1.7,0c-0.4-0.2-0.7-0.6-0.9-1.1c-0.2-0.5-0.1-1,0.2-1.4
			s0.7-0.7,1.4-0.9l13.3-3.9c0.7-0.2,1.3-0.2,1.7,0c0.4,0.2,0.7,0.6,0.9,1.1c0.2,0.5,0.1,1-0.2,1.4
			C244.9,347.2,244.4,347.5,243.7,347.7z"/>
		<path class="st2" d="M262.8,339.8l-4.4,1.9l6.2,14.3c0.4,0.8,0.4,1.5,0.2,2.1c-0.2,0.6-0.6,1-1.2,1.2c-0.6,0.3-1.2,0.3-1.7,0
			c-0.5-0.2-1-0.8-1.4-1.6l-6.2-14.3l-4.4,1.9c-0.7,0.3-1.3,0.4-1.7,0.2c-0.5-0.2-0.8-0.5-1-1c-0.2-0.5-0.2-1,0-1.4
			c0.2-0.4,0.7-0.8,1.3-1.1l12.7-5.5c0.7-0.3,1.3-0.4,1.7-0.2c0.5,0.2,0.8,0.5,1,1s0.2,1,0,1.4C264,339.2,263.5,339.6,262.8,339.8z"
			/>
		<path class="st2" d="M273.4,344.6l-5.4-8.8c-0.5-0.8-0.6-1.4-0.5-2s0.4-1,1-1.4c0.6-0.3,1.1-0.4,1.7-0.3s1.1,0.6,1.5,1.4l5.5,9
			c0.6,1,1.3,1.8,1.9,2.4c0.6,0.5,1.4,0.8,2.2,0.9s1.7-0.3,2.8-0.9c1.5-0.9,2.2-1.9,2.4-3c0.1-1.1-0.3-2.5-1.2-4.1l-5.5-9.1
			c-0.5-0.8-0.6-1.4-0.5-2c0.1-0.6,0.4-1,1-1.4c0.6-0.3,1.1-0.4,1.7-0.3c0.6,0.2,1.1,0.6,1.6,1.4l5.4,8.8c0.9,1.4,1.5,2.7,1.8,3.8
			c0.3,1.1,0.3,2.3,0,3.5c-0.3,1-0.8,1.9-1.5,2.8c-0.7,0.8-1.7,1.6-2.8,2.3c-1.4,0.9-2.7,1.4-3.9,1.8s-2.3,0.3-3.4,0.1
			c-1-0.2-2-0.8-2.9-1.6C275.2,347.1,274.3,346,273.4,344.6z"/>
		<path class="st2" d="M292.8,319.2l14.5,4.4l-8.2-9.8c-0.5-0.6-0.8-1.2-0.8-1.8s0.2-1,0.7-1.4c0.5-0.4,1-0.6,1.5-0.5
			s1.1,0.5,1.6,1.1l10.8,13c1.2,1.5,1.2,2.7,0,3.7c-0.3,0.2-0.6,0.4-0.9,0.5c-0.3,0.1-0.7,0.2-1,0.1c-0.4,0-0.7-0.1-1.1-0.2
			c-0.4-0.1-0.8-0.2-1.2-0.3l-14.3-4.4l8,9.7c0.5,0.6,0.8,1.2,0.7,1.8c0,0.6-0.3,1-0.7,1.4c-0.5,0.4-1,0.5-1.5,0.5s-1.1-0.4-1.6-1.1
			l-10.6-12.7c-0.4-0.5-0.7-1-0.9-1.4c-0.1-0.5-0.1-0.9,0-1.4c0.2-0.5,0.4-0.9,0.8-1.2c0.3-0.2,0.6-0.4,0.9-0.5s0.6-0.1,0.9-0.1
			s0.6,0.1,1,0.2C292,319,292.4,319.1,292.8,319.2z"/>
		<path class="st2" d="M327.7,299.5l3.1,2.7c0.4,0.4,0.7,0.7,0.9,1c0.2,0.3,0.3,0.6,0.3,1s-0.1,0.8-0.2,1.3
			c-0.3,1.4-0.8,2.7-1.4,3.8c-0.6,1.1-1.3,2.2-2.3,3.2c-1.1,1.2-2.3,2.2-3.6,2.9c-1.3,0.7-2.6,1-4,1.1c-1.4,0.1-2.7-0.2-4.1-0.7
			c-1.4-0.5-2.7-1.4-4-2.5c-1.2-1.1-2.2-2.3-2.9-3.6c-0.7-1.3-1.1-2.6-1.2-4s0.2-2.7,0.7-4.1c0.5-1.4,1.4-2.7,2.6-4
			c1-1.1,2-1.9,3-2.5c1-0.6,2-0.9,2.9-1c0.9-0.1,1.7-0.1,2.4,0.1c0.7,0.2,1.3,0.4,1.7,0.8c0.4,0.4,0.6,0.8,0.6,1.4
			c0,0.6-0.2,1.1-0.5,1.5c-0.2,0.2-0.5,0.4-0.8,0.5c-0.3,0.1-0.6,0.2-0.9,0.1c-1-0.2-1.8-0.2-2.3-0.3c-0.6,0-1.2,0.1-1.8,0.4
			c-0.6,0.3-1.3,0.8-1.9,1.5c-0.7,0.8-1.1,1.5-1.4,2.4c-0.3,0.8-0.3,1.7-0.2,2.5c0.1,0.9,0.4,1.7,0.9,2.6c0.5,0.9,1.2,1.7,2.1,2.5
			c1.9,1.7,3.7,2.5,5.5,2.6s3.4-0.7,4.7-2.3c0.7-0.7,1.2-1.5,1.6-2.4c0.4-0.8,0.7-1.8,1-2.8l-2.6-2.3l-2.2,2.5c-0.5,0.6-1,1-1.5,1.1
			c-0.5,0.1-0.9,0-1.3-0.4c-0.4-0.3-0.5-0.7-0.5-1.2s0.2-0.9,0.6-1.4l3.3-3.7c0.4-0.5,0.8-0.8,1.1-1c0.4-0.2,0.8-0.3,1.2-0.3
			C326.6,298.7,327.1,299,327.7,299.5z"/>
	</g>
	<circle class="st3" cx="17.2" cy="190.4" r="4.7"/>
	<circle class="st3" cx="364.2" cy="190.4" r="4.7"/>
</g>
<g id="Ebene_1">
	<g>
		<polygon class="st2" points="235,235 332.3,235 332.3,145.8 235,145.8 235,48.5 145.9,48.5 145.9,145.8 48.6,145.8 48.6,235 
			145.9,235 145.9,332.3 235,332.3 235,235 		"/>
		<g>
			<defs>
				<path id="SVGID_1_" d="M165.2,216.3c-13.9-13.9-13.9-36.5,0-50.4c13.9-13.9,36.5-13.9,50.4,0c13.9,13.9,13.9,36.5,0,50.4
					C201.8,230.2,179.2,230.2,165.2,216.3L165.2,216.3z M150.8,230.3c-21.9-21.9-21.9-57.4,0-79.2c21.9-21.9,57.4-21.9,79.2,0
					c21.9,21.9,21.9,57.4,0,79.2C208.1,252.2,172.7,252.2,150.8,230.3L150.8,230.3z"/>
			</defs>
			<use xlink:href="#SVGID_1_"  style="overflow:visible;fill:#FFFFFF;"/>
			<clipPath id="SVGID_00000127750519948693813470000007440871635785159845_">
				<use xlink:href="#SVGID_1_"  style="overflow:visible;"/>
			</clipPath>
			
				<path style="clip-path:url(#SVGID_00000127750519948693813470000007440871635785159845_);fill-rule:evenodd;clip-rule:evenodd;fill:#DC2F34;" d="
				M173.4,159.7l-15-15c-2,1.4-4,3-5.9,4.7l14.6,14.6C169.1,162.3,171.2,160.9,173.4,159.7L173.4,159.7z M163.7,167.4l-14.6-14.6
				c-1.7,1.9-3.3,3.8-4.7,5.9l14.9,14.9C160.5,171.5,162,169.4,163.7,167.4L163.7,167.4z M217.5,214.4l14.2,14.2
				c1.7-1.9,3.3-3.8,4.7-5.9l-14.6-14.6C220.6,210.3,219.2,212.4,217.5,214.4L217.5,214.4z M207.8,222.2l14.5,14.5
				c2-1.4,4-3,5.9-4.7L214,217.8C212.1,219.5,210,221,207.8,222.2L207.8,222.2z M221.6,173.6l14.8-14.8c-1.4-2-3-4-4.7-5.9
				l-14.5,14.5C218.9,169.3,220.4,171.4,221.6,173.6L221.6,173.6z M213.7,164l14.6-14.6c-1.9-1.7-3.8-3.3-5.9-4.7l-14.9,14.9
				C209.6,160.9,211.8,162.3,213.7,164L213.7,164z M159.1,208l-14.7,14.7c1.4,2,3,4,4.7,5.9l14.3-14.3
				C161.7,212.3,160.3,210.2,159.1,208L159.1,208z M166.8,217.7L152.5,232c1.9,1.7,3.8,3.3,5.9,4.7l14.6-14.6
				C170.8,220.9,168.7,219.5,166.8,217.7L166.8,217.7z"/>
			
				<use xlink:href="#SVGID_1_"  style="overflow:visible;fill:none;stroke:#0061AD;stroke-width:0.6307;stroke-miterlimit:3.8637;"/>
		</g>
		<g>
			<defs>
				<path id="SVGID_00000131364281770539371280000000924124780346955959_" d="M154.5,191c0-19.7,16-35.7,35.7-35.7
					c19.7,0,35.7,16,35.7,35.7c0,19.7-16,35.7-35.7,35.7C170.5,226.7,154.5,210.7,154.5,191L154.5,191z"/>
			</defs>
			<use xlink:href="#SVGID_00000131364281770539371280000000924124780346955959_"  style="overflow:visible;fill:#0061AD;"/>
			<clipPath id="SVGID_00000160187266444546754160000003417664185077996214_">
				<use xlink:href="#SVGID_00000131364281770539371280000000924124780346955959_"  style="overflow:visible;"/>
			</clipPath>
			<path style="clip-path:url(#SVGID_00000160187266444546754160000003417664185077996214_);fill:#FFFFFF;" d="M203.8,198.8
				c-2,0-8.3-1.7-13.1-5.8c-2.2,3-6.4,5.8-10.5,5.8h0c-2,0-8.3-1.7-13.1-5.8c-1.5,2.2-5,5.4-11.7,5.8l0,0c-0.2-0.9-0.4-2.2-0.5-2.5
				c-0.1-0.4-0.2-1.3-0.2-1.9c0.4,0,0.9,0,1,0c2.7-0.1,5.4-1.2,7.2-3.2c0.7-0.7,1.1-1.6,1.1-2.6c0-1.9-1.7-3-3.4-2.7
				c1.3-1.1,3-1.9,4.7-1.8c1.6,0.1,2.9,0.9,4,2c0.7,0.7,1.2,1.5,1.8,2.2c0.7,0.8,1.4,1.5,2.2,2.2c1.1,1,2.4,1.9,3.8,2.6
				c1.8,0.9,3.5,1.5,5.4,0.8c2.2-0.8,5.2-2.8,5.2-5.4c0-1.9-1.7-2.9-3.4-2.7c1.3-1.1,3-1.9,4.7-1.8c1.6,0.1,2.9,0.9,4,2
				c0.7,0.7,1.2,1.5,1.8,2.2c0.7,0.8,1.4,1.5,2.2,2.2c1.1,1,2.4,1.9,3.8,2.6c1.8,0.9,3.5,1.5,5.5,0.8c2.2-0.8,5.2-2.8,5.2-5.4
				c0-1.9-1.7-2.9-3.4-2.7c1.5-1.3,3.6-2.1,5.6-1.7c2.2,0.5,3.4,2.3,4.8,3.9c1.4,1.7,2.9,3.3,4.6,4.7c0.9,0.7,1.8,1.2,2.8,1.5
				c0,0.5-0.1,1.2-0.2,1.8c-0.2,1.6-0.4,2.4-0.4,2.4l0,0c-2.8-0.7-7.3-2.4-10.8-5.4C212.1,196,207.9,198.8,203.8,198.8L203.8,198.8
				L203.8,198.8z"/>
			<path style="clip-path:url(#SVGID_00000160187266444546754160000003417664185077996214_);fill:#FFFFFF;" d="M204.5,203.3
				c-2,0-8.3-1.4-13.1-4.8c-2.2,2.5-6.4,4.8-10.5,4.8h0c-2,0-8.3-1.4-13.1-4.8c-2,2.2-6.1,4.3-11.1,4.7l-0.6-1.9
				c5.1-0.4,9.3-2.6,10.8-4.7l0.6-0.8l0.8,0.6c4.4,3.5,10.9,4.9,12.7,5h0c3.8,0,7.9-2.5,9.5-4.7l0.6-0.8l0.8,0.6
				c4.4,3.5,10.9,4.9,12.7,5h0c3.8,0,7.9-2.5,9.5-4.7l0.6-0.8l0.8,0.6c2.8,2.2,6.4,3.6,9.2,4.3l-0.6,1.8c-2.7-0.7-6.1-2.1-9-4.1
				C212.8,200.9,208.6,203.3,204.5,203.3L204.5,203.3L204.5,203.3z"/>
			<path style="clip-path:url(#SVGID_00000160187266444546754160000003417664185077996214_);fill:#FFFFFF;" d="M205.2,207.8
				c-2,0-8.4-1.3-13.1-4.3c-2.2,2.2-6.4,4.3-10.4,4.3h0c-2,0-8.4-1.3-13.1-4.3c-1.9,1.9-5.5,3.7-9.8,4.2l-0.9-1.8
				c4.8-0.4,8.5-2.6,9.8-4.2l0.6-0.7l0.8,0.5c4.4,3.1,10.9,4.4,12.7,4.4c3.8,0,7.9-2.2,9.5-4.2l0.6-0.7l0.8,0.5
				c4.4,3.1,10.9,4.4,12.7,4.4c3.8,0,7.9-2.2,9.5-4.2l0.6-0.7l0.8,0.5c2.1,1.5,4.8,2.6,7.1,3.3l-0.8,1.8c-2.2-0.7-4.6-1.7-6.7-3
				C213.5,205.7,209.3,207.8,205.2,207.8L205.2,207.8L205.2,207.8z"/>
			
				<path style="clip-path:url(#SVGID_00000160187266444546754160000003417664185077996214_);fill:#0061AD;stroke:#0061AD;stroke-width:0.6307;stroke-miterlimit:3.8637;" d="
				M154.5,191c0-19.7,16-35.7,35.7-35.7c19.7,0,35.7,16,35.7,35.7c0,0.6,0,1.2,0,1.8c-1.1-0.4-2-1.2-2.9-1.9
				c-1.3-1.2-2.4-2.5-3.5-3.8c-1.2-1.4-2.1-2.8-3.8-3.7c-2.6-1.4-5.6-0.9-7.9,0.7c-1,0.7-2.5,1.9-2.5,3.2c0,0.5,0.3,0.9,0.7,1
				c0.3,0.1,1.1-0.5,1.2-0.6c1.4-0.7,3.3-0.1,2.5,1.8c-0.4,0.9-1.4,1.6-2.2,2.2c-0.9,0.6-2.2,1.4-3.4,1.2c-0.8-0.2-1.6-0.5-2.3-0.8
				c-1.3-0.6-2.5-1.5-3.6-2.4c-0.7-0.6-1.4-1.3-2-2c-0.7-0.8-1.3-1.7-2-2.5c-1.9-2-4.6-3.1-7.3-2.4c-1.6,0.4-3.1,1.3-4.3,2.5
				c-0.8,0.9-1.4,2-0.9,2.6c0.3,0.4,0.7,0.5,1.1,0.2c0.7-0.5,1.5-0.9,2.3-0.7c1.4,0.3,1,1.9,0.3,2.7c-0.9,1.1-2.1,1.9-3.4,2.4
				c-0.9,0.3-1.5,0.4-2.4,0.1c-2.7-0.8-5-2.6-6.9-4.6c-1.3-1.4-2.3-3.1-3.9-4.2c-1.1-0.7-2.3-1.2-3.6-1.3c-2.7-0.2-6.1,1.4-7.4,3.9
				c-0.3,0.5-0.3,1.1,0.1,1.6c0.3,0.3,0.6,0.4,0.9,0.1c0.8-0.6,3.1-1.5,3.4,0.2c0.2,1.6-1.9,3-3.1,3.6c-1.5,0.7-3.1,0.9-4.7,0.9
				C154.6,192.2,154.5,191.6,154.5,191L154.5,191z"/>
			<path style="clip-path:url(#SVGID_00000160187266444546754160000003417664185077996214_);fill:#0061AD;" d="M154.6,194.4
				l-0.1-1.5c1.6,0,3.2-0.2,4.7-0.9c1.2-0.6,3.3-2,3.1-3.6c-0.3-1.8-2.5-0.9-3.4-0.2c-0.4,0.3-0.6,0.2-0.9-0.1
				c-0.4-0.4-0.4-1.1-0.1-1.6c1.3-2.5,4.7-4.1,7.4-3.9c1.3,0.1,2.5,0.5,3.6,1.3c1.6,1.1,2.6,2.8,3.9,4.2c1.9,2,4.2,3.8,6.9,4.6
				c0.9,0.3,1.4,0.2,2.4-0.1c1.3-0.5,2.5-1.3,3.4-2.4c0.7-0.8,1.1-2.4-0.3-2.7c-0.8-0.2-1.7,0.2-2.3,0.7c-0.4,0.3-0.7,0.1-1.1-0.2
				c-0.5-0.6,0-1.7,0.9-2.6c1.1-1.2,2.7-2.1,4.3-2.5c2.7-0.7,5.4,0.3,7.3,2.4c0.7,0.8,1.3,1.7,2,2.5c0.6,0.7,1.3,1.4,2,2
				c1.1,1,2.3,1.8,3.6,2.4c0.7,0.4,1.5,0.6,2.3,0.8c1.1,0.2,2.5-0.6,3.4-1.2c0.8-0.5,1.8-1.3,2.2-2.2c0.8-1.9-1.1-2.5-2.5-1.8
				c-0.2,0.1-0.9,0.7-1.2,0.6c-0.5-0.2-0.8-0.5-0.7-1c0-1.3,1.6-2.5,2.5-3.2c2.4-1.6,5.3-2.1,7.9-0.7c1.6,0.9,2.6,2.3,3.8,3.7
				c1.1,1.3,2.3,2.6,3.5,3.8c0.8,0.8,1.8,1.6,2.9,2l-0.1,1.5c-1-0.2-1.9-0.7-2.8-1.5c-1.7-1.4-3.2-3-4.6-4.7
				c-1.4-1.6-2.6-3.4-4.8-3.9c-2-0.5-4.1,0.4-5.6,1.7c1.8-0.2,3.4,0.8,3.4,2.7c0,2.6-3,4.6-5.2,5.4c-2,0.7-3.7,0.1-5.5-0.8
				c-1.4-0.7-2.6-1.6-3.8-2.6c-0.8-0.7-1.5-1.4-2.2-2.2c-0.6-0.7-1.1-1.5-1.8-2.2c-1.1-1.1-2.5-1.9-4-2c-1.7-0.1-3.4,0.7-4.7,1.8
				c1.8-0.2,3.4,0.8,3.4,2.7c0,2.6-3,4.7-5.2,5.4c-1.9,0.7-3.7,0.1-5.4-0.8c-1.4-0.7-2.6-1.6-3.8-2.6c-0.8-0.7-1.5-1.5-2.2-2.2
				c-0.6-0.7-1.1-1.5-1.8-2.2c-1.1-1.1-2.4-1.9-4-2c-1.7-0.1-3.4,0.7-4.7,1.8c1.8-0.2,3.4,0.8,3.4,2.7c0,1-0.4,1.9-1.1,2.6
				c-1.8,2-4.5,3.1-7.2,3.2C155.7,194.4,155.1,194.4,154.6,194.4L154.6,194.4z"/>
			
				<use xlink:href="#SVGID_00000131364281770539371280000000924124780346955959_"  style="overflow:visible;fill:none;stroke:#0061AD;stroke-width:0.6307;stroke-miterlimit:3.8637;"/>
		</g>
		<path class="st8" d="M146.6,194.7L145,188l-1.6,6.8H141l-2.3-8.5l-0.2-0.8c-0.2-0.8-0.3-1.1-0.5-1.7h3.4c0,0.3,0.1,0.7,0.1,1.2
			l0.1,0.7l0.8,4.9l1.6-6.8h2.3l1.6,6.8l0.8-4.6c0-0.1,0-0.3,0.1-0.6c0.1-0.8,0.2-1.1,0.2-1.5h3.1c-0.1,0.4-0.4,1.3-0.7,2.2
			l-2.3,8.8H146.6L146.6,194.7z"/>
		<path class="st8" d="M186.9,150.8c-1-1-1.6-2.7-1.6-4.6c0-3.7,2.1-5.9,5.4-5.9c3,0,4.8,2.1,4.8,5.7c0,3.7-2,6-5.3,6
			C188.7,151.9,187.6,151.6,186.9,150.8L186.9,150.8z M188.3,146.2c0,2.4,0.7,3.6,2,3.6c1.4,0,2.1-1.4,2.1-4c0-2.3-0.7-3.6-1.9-3.6
			C189.1,142.4,188.3,143.8,188.3,146.2L188.3,146.2z M191.4,139.4v-2.5h2v2.5H191.4L191.4,139.4z M187.5,139.4v-2.5h2v2.5H187.5
			L187.5,139.4z"/>
		<path class="st8" d="M238.4,194.7c-0.1-0.3-0.2-0.6-0.4-1.3l-0.6-1.6c-0.5-1.3-0.7-1.5-1.6-1.5h-1.1v2.8c0,0.8,0,1.3,0.1,1.7H231
			c0.1-0.4,0.1-0.9,0.1-1.7v-7.7c0-0.8,0-1.3-0.1-1.7h5.5c1.5,0,2.3,0.1,3,0.5c1,0.5,1.5,1.3,1.5,2.3c0,1.3-0.8,2.1-2.7,2.6
			c1.2,0.3,1.8,0.8,2.2,1.6l0.9,2.1c0,0.1,0.1,0.3,0.2,0.6c0.3,0.7,0.3,0.8,0.5,1.1H238.4L238.4,194.7z M234.6,188.2h1.2
			c1.2,0,1.9-0.5,1.9-1.3c0-0.8-0.5-1.2-1.8-1.3h-1.2l-0.2,0V188.2L234.6,188.2z"/>
		<path class="st8" d="M188.5,238.9l-6.2-1.9l6.2-1.9v0l1.9-6.2l1.9,6.2l0,0l6.2,1.9l-6.2,1.9h0l-1.9,6.2L188.5,238.9L188.5,238.9z
			 M188.7,238.8l1.7,5.3v-7l-1.7-1.7l-5.3,1.7h7L188.7,238.8L188.7,238.8z M192,238.8l5.3-1.7h-7L192,238.8L192,238.8z M190.3,237.1
			l1.7-1.7l-1.7-5.3V237.1L190.3,237.1z"/>
		<polygon class="st9" points="190.3,230.1 192,235.4 190.3,237.1 190.3,230.1 		"/>
		<polygon class="st9" points="190.3,237.1 197.3,237.1 192,238.8 190.3,237.1 		"/>
		<polygon class="st9" points="188.7,238.8 190.3,237.1 190.3,244.1 188.7,238.8 		"/>
		<polygon class="st9" points="183.4,237.1 188.7,235.4 190.3,237.1 183.4,237.1 		"/>
		<path class="st10" d="M228.7,151.7l2.2-2.2l-0.4-10.8c-0.3-5.4-3.9-10-9.2-11.3c1,1.5,1.6,3.1,2,4.9l2.9,14.6l0.6,2l0.9,1.9
			L228.7,151.7L228.7,151.7z"/>
		<path class="st10" d="M218.3,132.9l-2.6-0.7l-2.4-1l-2.3-1.3l-2.1-1.6l-9.7-8.1c-0.8-0.7-1.7-1.3-2.7-1.8
			c5.8-1.5,12.2,0.9,15.6,5.8L218.3,132.9L218.3,132.9z"/>
		<path class="st11" d="M146.1,146.5c-1.6-4.2,1.1-9.5,5.5-10.6l9.8-2.9c-3.5,6.4-8.4,10.8-15,13.8L146.1,146.5L146.1,146.5z"/>
		<path class="st10" d="M153.8,142.2c-2.2,1.8-4.6,3.3-7.4,4.6l4.9,4.9C153.4,150.4,154.4,144.8,153.8,142.2L153.8,142.2z"/>
		<path class="st10" d="M149.6,136.8c1.1-5.7,6.5-10.1,12.3-9.8l10.3,0.3l-2,1.7l-2.2,1.5l-2.4,1.2l-2.4,0.9l-11.6,3.4
			C150.9,136.1,150.3,136.4,149.6,136.8L149.6,136.8z"/>
		<path class="st11" d="M184,124.6l-10.1-2.9c-5.8-1.7-11.9,0.6-15.3,5.6c1-0.3,2.1-0.4,3.2-0.4l11.5,0.3
			C176.8,127.6,181.2,126.3,184,124.6L184,124.6z"/>
		<path class="st10" d="M170.6,121.2c4.5-3.8,10.4-4.5,15.6-1.8l9.9,5.2c-3.5,1.2-8,1.2-11.6,0.1l-10.5-3
			C172.9,121.4,171.7,121.3,170.6,121.2L170.6,121.2z"/>
		<path class="st11" d="M207.8,127.3c-3.7,0.2-7.7-0.4-10.9-2.2l-10.7-5.6c-0.9-0.5-1.9-0.8-2.8-1.1c5.3-2.7,11.3-2,15.8,1.8
			L207.8,127.3L207.8,127.3z"/>
		<path class="st11" d="M225.2,141.6l-1.9-9.3c-1.3-6.5-7.2-11.3-13.9-11c1,0.8,2,1.8,2.7,3l8.2,11.8l2.2,2.9L225.2,141.6
			L225.2,141.6z"/>
		<path class="st11" d="M230.9,149.5l3-3c1.3-3.6-0.3-7.7-3.5-9.7c0.1,0.6,0.2,1.2,0.2,1.8L230.9,149.5L230.9,149.5z"/>
		<path class="st10" d="M151.3,229.2l-2.2,2.2l0.4,10.8c0.3,5.4,3.9,10,9.2,11.3c-1-1.5-1.6-3.1-2-4.9l-2.9-14.6l-0.6-2l-0.9-1.9
			L151.3,229.2L151.3,229.2z"/>
		<path class="st10" d="M161.7,248l2.6,0.7l2.4,1l2.3,1.3l2.1,1.6l9.7,8.1c0.8,0.7,1.7,1.3,2.6,1.8c-5.8,1.5-12.2-0.9-15.6-5.8
			L161.7,248L161.7,248z"/>
		<path class="st11" d="M233.9,234.4c1.6,4.2-1.1,9.5-5.5,10.6l-9.8,2.9c3.5-6.4,8.4-10.8,15-13.8L233.9,234.4L233.9,234.4z"/>
		<path class="st10" d="M226.2,238.6c2.2-1.8,4.6-3.3,7.4-4.6l-4.9-4.9C226.6,230.5,225.6,236.1,226.2,238.6L226.2,238.6z"/>
		<path class="st10" d="M230.3,244.1c-1.1,5.7-6.5,10.1-12.3,9.8l-10.3-0.3l2-1.7l2.2-1.5l2.4-1.2l2.4-0.9l11.6-3.4
			C229.1,244.8,229.7,244.5,230.3,244.1L230.3,244.1z"/>
		<path class="st11" d="M195.9,256.2l10.1,2.9c5.8,1.7,11.9-0.6,15.3-5.6c-1,0.3-2.1,0.4-3.2,0.4l-11.5-0.3
			C203.2,253.3,198.8,254.5,195.9,256.2L195.9,256.2z"/>
		<path class="st10" d="M209.4,259.6c-4.5,3.8-10.4,4.5-15.6,1.8l-9.9-5.2c3.5-1.2,8-1.2,11.6-0.1l10.5,3
			C207.1,259.4,208.3,259.6,209.4,259.6L209.4,259.6z"/>
		<path class="st11" d="M172.2,253.6c3.7-0.2,7.7,0.4,10.9,2.2l10.7,5.6c0.9,0.5,1.9,0.8,2.8,1.1c-5.3,2.7-11.3,2-15.8-1.8
			L172.2,253.6L172.2,253.6z"/>
		<path class="st11" d="M154.8,239.3l1.9,9.3c1.3,6.5,7.2,11.3,13.9,11c-1-0.8-2-1.8-2.7-3l-8.2-11.8l-2.2-2.9L154.8,239.3
			L154.8,239.3z"/>
		<path class="st11" d="M149.1,231.4l-3,3c-1.3,3.6,0.3,7.7,3.5,9.7c-0.1-0.6-0.2-1.2-0.2-1.8L149.1,231.4L149.1,231.4z"/>
		<path class="st10" d="M151.2,151.7l-2.2-2.2l-10.8,0.4c-5.4,0.3-10,3.9-11.3,9.2c1.5-1,3.1-1.6,4.9-2l14.6-2.9l2-0.6l1.9-0.9
			L151.2,151.7L151.2,151.7z"/>
		<path class="st10" d="M132.4,162.2l-0.7,2.6l-1,2.4l-1.3,2.3l-1.6,2.1l-8.1,9.7c-0.7,0.8-1.3,1.7-1.8,2.6
			c-1.5-5.8,0.9-12.2,5.8-15.6L132.4,162.2L132.4,162.2z"/>
		<path class="st11" d="M146.1,234.3c-4.2,1.6-9.5-1.1-10.6-5.5l-2.9-9.8c6.4,3.5,10.8,8.4,13.8,15L146.1,234.3L146.1,234.3z"/>
		<path class="st10" d="M141.8,226.7c1.8,2.2,3.3,4.6,4.6,7.4l4.9-4.9C149.9,227.1,144.4,226,141.8,226.7L141.8,226.7z"/>
		<path class="st10" d="M136.3,230.8c-5.7-1.1-10.1-6.5-9.8-12.3l0.3-10.3l1.7,2l1.5,2.2l1.2,2.4l0.9,2.4l3.4,11.6
			C135.6,229.5,136,230.2,136.3,230.8L136.3,230.8z"/>
		<path class="st11" d="M124.2,196.4l-2.9,10.1c-1.7,5.8,0.6,11.9,5.6,15.3c-0.3-1-0.4-2.1-0.4-3.2l0.3-11.5
			C127.2,203.7,125.9,199.2,124.2,196.4L124.2,196.4z"/>
		<path class="st10" d="M120.8,209.9c-3.8-4.5-4.5-10.4-1.8-15.6l5.2-9.9c1.2,3.5,1.2,8,0.1,11.6l-3,10.5
			C121,207.6,120.8,208.8,120.8,209.9L120.8,209.9z"/>
		<path class="st11" d="M126.9,172.7c0.2,3.7-0.4,7.6-2.2,10.9l-5.6,10.7c-0.5,0.9-0.8,1.9-1.1,2.8c-2.7-5.3-2-11.3,1.8-15.8
			L126.9,172.7L126.9,172.7z"/>
		<path class="st11" d="M141.1,155.2l-9.3,1.9c-6.5,1.3-11.3,7.2-11,13.9c0.8-1,1.8-2,3-2.7l11.8-8.2l2.9-2.2L141.1,155.2
			L141.1,155.2z"/>
		<path class="st11" d="M149.1,149.5l-3-3c-3.6-1.3-7.7,0.3-9.7,3.5c0.6-0.1,1.2-0.2,1.8-0.2L149.1,149.5L149.1,149.5z"/>
		<path class="st10" d="M228.8,229.2l2.2,2.2l10.8-0.4c5.4-0.3,10-3.9,11.3-9.2c-1.5,1-3.1,1.6-4.9,2l-14.6,2.9l-2,0.6l-1.9,0.9
			L228.8,229.2L228.8,229.2z"/>
		<path class="st10" d="M247.6,218.7l0.7-2.6l1-2.4l1.3-2.3l1.6-2.1l8.1-9.7c0.7-0.8,1.3-1.7,1.8-2.6c1.5,5.8-0.9,12.2-5.8,15.6
			L247.6,218.7L247.6,218.7z"/>
		<path class="st11" d="M233.9,146.5c4.2-1.6,9.5,1.1,10.6,5.5l2.9,9.8c-6.4-3.5-10.8-8.4-13.8-15L233.9,146.5L233.9,146.5z"/>
		<path class="st10" d="M238.2,154.2c-1.8-2.2-3.3-4.6-4.6-7.4l-4.9,4.9C230.1,153.8,235.6,154.8,238.2,154.2L238.2,154.2z"/>
		<path class="st10" d="M243.7,150.1c5.7,1.1,10.1,6.5,9.8,12.3l-0.3,10.3l-1.7-2l-1.5-2.2l-1.2-2.4l-0.9-2.4l-3.4-11.6
			C244.4,151.4,244,150.7,243.7,150.1L243.7,150.1z"/>
		<path class="st11" d="M255.8,184.5l2.9-10.1c1.7-5.8-0.6-11.9-5.6-15.3c0.3,1,0.4,2.1,0.4,3.2l-0.3,11.5
			C252.8,177.2,254.1,181.7,255.8,184.5L255.8,184.5z"/>
		<path class="st10" d="M259.2,171c3.8,4.5,4.5,10.4,1.8,15.6l-5.2,9.9c-1.2-3.5-1.2-8-0.1-11.6l3-10.5
			C259,173.3,259.2,172.1,259.2,171L259.2,171z"/>
		<path class="st11" d="M253.1,208.2c-0.2-3.7,0.4-7.7,2.2-10.9l5.6-10.7c0.5-0.9,0.8-1.9,1.1-2.8c2.7,5.3,2,11.3-1.8,15.8
			L253.1,208.2L253.1,208.2z"/>
		<path class="st11" d="M238.9,225.7l9.3-1.9c6.5-1.3,11.3-7.2,11-13.9c-0.8,1-1.8,2-3,2.7l-11.8,8.2l-2.9,2.2L238.9,225.7
			L238.9,225.7z"/>
		<path class="st11" d="M230.9,231.3l3,3c3.6,1.3,7.7-0.3,9.7-3.5c-0.6,0.1-1.2,0.2-1.8,0.2L230.9,231.3L230.9,231.3z"/>
	</g>
	<g>
	</g>
	<g>
	</g>
	<g>
	</g>
	<g>
	</g>
	<g>
	</g>
	<g>
	</g>
	<g>
	</g>
	<g>
	</g>
	<g>
	</g>
	<g>
	</g>
	<g>
	</g>
	<g>
	</g>
</g>
</svg>
